<mxfile host="app.diagrams.net" modified="2023-06-05T19:14:18.926Z" agent="Mozilla/5.0 (X11; Ubuntu; Linux x86_64; rv:109.0) Gecko/20100101 Firefox/113.0" etag="O8LMctPy4PoxYhoNwTgP" version="21.3.5" type="github">
  <diagram name="PÃ¡gina-1" id="deb6sy_AOblM5G74-ASp">
    <mxGraphModel dx="1127" dy="763" grid="1" gridSize="10" guides="1" tooltips="1" connect="1" arrows="1" fold="1" page="1" pageScale="1" pageWidth="1169" pageHeight="827" math="0" shadow="0">
      <root>
        <mxCell id="0" />
        <mxCell id="1" parent="0" />
        <mxCell id="ydj0bEtqqgrxgQwdrAi9-1" value="" style="whiteSpace=wrap;html=1;aspect=fixed;" vertex="1" parent="1">
          <mxGeometry x="240" y="110" width="520" height="520" as="geometry" />
        </mxCell>
        <mxCell id="ydj0bEtqqgrxgQwdrAi9-2" value="" style="rounded=0;whiteSpace=wrap;html=1;" vertex="1" parent="1">
          <mxGeometry x="510" y="110" width="20" height="520" as="geometry" />
        </mxCell>
        <mxCell id="ydj0bEtqqgrxgQwdrAi9-3" value="" style="rounded=0;whiteSpace=wrap;html=1;" vertex="1" parent="1">
          <mxGeometry x="551" y="110" width="20" height="520" as="geometry" />
        </mxCell>
        <mxCell id="ydj0bEtqqgrxgQwdrAi9-4" value="" style="rounded=0;whiteSpace=wrap;html=1;" vertex="1" parent="1">
          <mxGeometry x="593" y="110" width="20" height="520" as="geometry" />
        </mxCell>
        <mxCell id="ydj0bEtqqgrxgQwdrAi9-5" value="" style="rounded=0;whiteSpace=wrap;html=1;" vertex="1" parent="1">
          <mxGeometry x="634" y="110" width="20" height="520" as="geometry" />
        </mxCell>
        <mxCell id="ydj0bEtqqgrxgQwdrAi9-6" value="" style="rounded=0;whiteSpace=wrap;html=1;" vertex="1" parent="1">
          <mxGeometry x="676" y="110" width="20" height="520" as="geometry" />
        </mxCell>
        <mxCell id="ydj0bEtqqgrxgQwdrAi9-7" value="" style="rounded=0;whiteSpace=wrap;html=1;" vertex="1" parent="1">
          <mxGeometry x="718" y="110" width="20" height="520" as="geometry" />
        </mxCell>
        <mxCell id="ydj0bEtqqgrxgQwdrAi9-8" value="" style="rounded=0;whiteSpace=wrap;html=1;" vertex="1" parent="1">
          <mxGeometry x="385" y="110" width="20" height="520" as="geometry" />
        </mxCell>
        <mxCell id="ydj0bEtqqgrxgQwdrAi9-9" value="" style="rounded=0;whiteSpace=wrap;html=1;" vertex="1" parent="1">
          <mxGeometry x="426" y="110" width="20" height="520" as="geometry" />
        </mxCell>
        <mxCell id="ydj0bEtqqgrxgQwdrAi9-10" value="" style="rounded=0;whiteSpace=wrap;html=1;" vertex="1" parent="1">
          <mxGeometry x="468" y="110" width="20" height="520" as="geometry" />
        </mxCell>
        <mxCell id="ydj0bEtqqgrxgQwdrAi9-11" value="" style="rounded=0;whiteSpace=wrap;html=1;" vertex="1" parent="1">
          <mxGeometry x="260" y="110" width="20" height="520" as="geometry" />
        </mxCell>
        <mxCell id="ydj0bEtqqgrxgQwdrAi9-12" value="" style="rounded=0;whiteSpace=wrap;html=1;" vertex="1" parent="1">
          <mxGeometry x="302" y="110" width="20" height="520" as="geometry" />
        </mxCell>
        <mxCell id="ydj0bEtqqgrxgQwdrAi9-13" value="" style="rounded=0;whiteSpace=wrap;html=1;" vertex="1" parent="1">
          <mxGeometry x="343" y="110" width="20" height="520" as="geometry" />
        </mxCell>
      </root>
    </mxGraphModel>
  </diagram>
</mxfile>
